<svg width="120" height="120" viewBox="0 0 120 120" fill="none" xmlns="http://www.w3.org/2000/svg">
  <!-- 定义渐变 - 浅色版本（用于深色背景） -->
  <defs>
    <linearGradient id="inkGradientLight" x1="0%" y1="0%" x2="100%" y2="100%">
      <stop offset="0%" style="stop-color:#f8fafc;stop-opacity:1" />
      <stop offset="50%" style="stop-color:#f1f5f9;stop-opacity:0.98" />
      <stop offset="100%" style="stop-color:#e2e8f0;stop-opacity:0.95" />
    </linearGradient>
    
    <linearGradient id="brushStrokeLight" x1="0%" y1="0%" x2="100%" y2="100%">
      <stop offset="0%" style="stop-color:#60a5fa;stop-opacity:1" />
      <stop offset="30%" style="stop-color:#3b82f6;stop-opacity:0.95" />
      <stop offset="70%" style="stop-color:#2563eb;stop-opacity:0.9" />
      <stop offset="100%" style="stop-color:#1d4ed8;stop-opacity:0.85" />
    </linearGradient>
    
    <!-- 橙色点缀 - 印章感 -->
    <radialGradient id="sealRedLight">
      <stop offset="0%" style="stop-color:#f87171;stop-opacity:0.95" />
      <stop offset="100%" style="stop-color:#dc2626;stop-opacity:0.8" />
    </radialGradient>
  </defs>
  
  <!-- 背景墨渍效果（可选） -->
  <circle cx="60" cy="58" r="48" fill="#ffffff" opacity="0.05"/>
  
  <!-- 左竖 - 粗壮书法笔画 -->
  <path d="M 26 30 Q 28 30 30 32 L 32 82 Q 32 86 30 88 L 26 88 Q 24 86 24 82 L 24 32 Q 24 30 26 30 Z" 
        fill="url(#inkGradientLight)"/>
  
  <!-- 左竖的笔锋细节 -->
  <path d="M 26 30 L 30 32 L 28 34" fill="#f8fafc" opacity="0.7"/>
  <ellipse cx="28" cy="88" rx="3" ry="2" fill="#f8fafc" opacity="0.4"/>
  
  <!-- 斜杠 - 书法主笔，有力量感 -->
  <path d="M 30 28 
           Q 32 26 36 28
           L 88 84
           Q 92 88 90 92
           Q 88 94 84 92
           L 32 36
           Q 28 32 30 28 Z" 
        fill="url(#brushStrokeLight)"/>
  
  <!-- 斜杠的笔锋起笔 -->
  <ellipse cx="33" cy="28" rx="4" ry="3" fill="#60a5fa" opacity="0.7" 
           transform="rotate(-45 33 28)"/>
  
  <!-- 斜杠的笔锋收笔 -->
  <path d="M 86 88 Q 90 90 92 86 Q 90 88 86 88 Z" fill="#3b82f6" opacity="0.8"/>
  
  <!-- 右竖 - 粗壮书法笔画 -->
  <path d="M 88 32 Q 88 30 90 30 L 94 30 Q 96 30 96 32 L 96 86 Q 96 88 94 88 L 90 88 Q 88 88 88 86 L 88 32 Z" 
        fill="url(#inkGradientLight)"/>
  
  <!-- 右竖的笔锋细节 -->
  <path d="M 90 30 L 94 32 L 92 34" fill="#f8fafc" opacity="0.7"/>
  <ellipse cx="92" cy="88" rx="3" ry="2" fill="#f8fafc" opacity="0.4"/>
  
  <!-- 飞白效果 - 书法特征 -->
  <path d="M 45 48 Q 48 46 52 48 Q 50 50 46 49 Z" fill="#0f172a" opacity="0.25"/>
  <path d="M 62 64 Q 65 62 68 64 Q 66 66 63 65 Z" fill="#0f172a" opacity="0.2"/>
  <ellipse cx="72" cy="73" rx="2" ry="1.5" fill="#1e293b" opacity="0.2" transform="rotate(-45 72 73)"/>
  
  <!-- 墨点效果 -->
  <circle cx="36" cy="26" r="1.5" fill="#e2e8f0" opacity="0.5"/>
  <circle cx="92" cy="30" r="1" fill="#e2e8f0" opacity="0.4"/>
  <ellipse cx="26" cy="86" rx="1.5" ry="1" fill="#e2e8f0" opacity="0.35"/>
  
  <!-- 印章点缀 - 右下角 -->
  <circle cx="98" cy="94" r="4" fill="url(#sealRedLight)" opacity="0.9"/>
  <circle cx="98" cy="94" r="2.5" fill="none" stroke="#ffffff" stroke-width="0.5" opacity="0.7"/>
</svg>
